<svg width="510" height="495" viewBox="0 0 510 495" fill="none" xmlns="http://www.w3.org/2000/svg">
<path d="M254.887 494.368C395.657 494.368 509.773 428.482 509.773 347.208C509.773 265.934 395.657 200.049 254.887 200.049C114.117 200.049 0 265.934 0 347.208C0 428.482 114.117 494.368 254.887 494.368Z" fill="#F0F0F0"/>
<path d="M401.267 398.268C384.553 388.618 384.553 372.975 401.267 363.325C417.981 353.675 445.081 353.675 461.795 363.325C478.509 372.975 478.509 388.618 461.795 398.268C445.081 407.918 417.981 407.918 401.267 398.268Z" fill="#E0E0E0"/>
<path d="M61.3172 399.609L17.3522 374.23C14.8748 372.802 14.8748 370.476 17.3522 369.048L273.083 221.401C274.473 220.697 276.009 220.33 277.567 220.33C279.125 220.33 280.661 220.697 282.051 221.401L326.027 246.781C328.504 248.209 328.504 250.535 326.027 251.963L70.2962 399.609C68.9045 400.313 67.3665 400.68 65.8067 400.68C64.2469 400.68 62.7089 400.313 61.3172 399.609Z" fill="#E0E0E0"/>
<path d="M219.349 354.37L257.148 332.517C261.043 330.267 262.99 327.324 262.99 324.371C262.99 321.417 262.99 319.113 262.99 319.113L223.785 297.001C222.69 296.293 221.778 295.335 221.123 294.207C220.469 293.079 220.091 291.812 220.02 290.51V243.895L154.029 282.039V328.633C154.105 329.934 154.486 331.199 155.139 332.327C155.793 333.454 156.702 334.412 157.794 335.124L191.157 354.337C198.925 358.87 211.56 358.87 219.349 354.37Z" fill="#BA68C8"/>
<g opacity="0.6">
<path d="M219.347 354.37L257.146 332.517C261.041 330.267 262.988 327.324 262.988 324.371C262.988 321.417 262.988 319.113 262.988 319.113L223.783 297.001C222.688 296.293 221.776 295.335 221.121 294.207C220.467 293.079 220.089 291.812 220.018 290.51V243.895L154.027 282.039V328.633C154.103 329.934 154.484 331.199 155.137 332.327C155.791 333.454 156.701 334.412 157.792 335.124L191.155 354.337C198.923 358.87 211.558 358.87 219.347 354.37Z" fill="black"/>
</g>
<path opacity="0.3" d="M169.855 336.888V342.124L157.761 335.147C156.669 334.435 155.761 333.477 155.109 332.349C154.457 331.222 154.079 329.956 154.007 328.656V282.04L166.578 274.781C166.837 277.973 167.118 281.272 167.389 284.518L158.55 289.602V326.005C158.621 327.308 158.998 328.575 159.653 329.703C160.307 330.831 161.219 331.789 162.315 332.496L169.855 336.888Z" fill="black"/>
<path d="M158.551 326.016C158.625 327.317 159.005 328.583 159.659 329.71C160.313 330.838 161.223 331.796 162.315 332.507L191.113 349.102C198.903 353.591 211.538 353.602 219.338 349.102L257.202 327.249C265.001 322.749 265.001 315.457 257.202 310.957L228.382 294.362C227.292 293.649 226.384 292.691 225.732 291.563C225.08 290.436 224.702 289.171 224.628 287.871V251.457L158.637 289.602L158.551 326.016Z" fill="#BA68C8"/>
<path opacity="0.3" d="M158.551 326.016C158.625 327.317 159.005 328.583 159.659 329.71C160.313 330.838 161.223 331.796 162.315 332.507L191.113 349.102C198.903 353.591 211.538 353.602 219.338 349.102L257.202 327.249C265.001 322.749 265.001 315.457 257.202 310.957L228.382 294.362C227.292 293.649 226.384 292.691 225.732 291.563C225.08 290.436 224.702 289.171 224.628 287.871V251.457L158.637 289.602L158.551 326.016Z" fill="black"/>
<path opacity="0.5" d="M236.009 298.808L228.339 294.383C227.249 293.671 226.342 292.712 225.69 291.585C225.038 290.458 224.659 289.193 224.586 287.893V251.457L158.595 289.602V326.016C158.669 327.317 159.049 328.583 159.703 329.71C160.357 330.838 161.267 331.796 162.359 332.507L169.932 336.834L236.009 298.808Z" fill="black"/>
<path d="M263 319.121V324.379C263 327.332 261.042 330.264 257.158 332.525L219.295 354.367C215.151 356.578 210.523 357.727 205.826 357.709V352.473C210.523 352.491 215.151 351.342 219.295 349.131L257.158 327.267C261.042 325.028 263 322.074 263 319.121Z" fill="#BA68C8"/>
<path opacity="0.5" d="M263 319.121V324.379C263 327.332 261.042 330.264 257.158 332.525L219.295 354.367C215.151 356.578 210.523 357.727 205.826 357.709V352.473C210.523 352.491 215.151 351.342 219.295 349.131L257.158 327.267C261.042 325.028 263 322.074 263 319.121Z" fill="black"/>
<path d="M52.5333 371.268C53.9599 371.957 55.5285 372.301 57.1125 372.273C58.6966 372.245 60.2518 371.845 61.653 371.105L316.962 223.708C318.331 222.815 319.47 221.612 320.288 220.197C321.105 218.782 321.578 217.194 321.668 215.562V9.02166C321.619 7.43395 321.195 5.88026 320.432 4.48721C319.669 3.09415 318.587 1.90114 317.275 1.0054C315.851 0.315585 314.283 -0.0282602 312.7 0.00181622C311.117 0.0318926 309.564 0.435041 308.166 1.17849L52.8579 148.619C51.4937 149.518 50.3612 150.726 49.5528 152.145C48.7443 153.565 48.2829 155.155 48.2061 156.787V363.295C48.2543 364.869 48.6709 366.411 49.4224 367.795C50.1738 369.18 51.2393 370.369 52.5333 371.268Z" fill="#BA68C8"/>
<path d="M61.6854 371.094L316.994 223.697C318.365 222.806 319.506 221.603 320.323 220.188C321.141 218.772 321.613 217.183 321.7 215.551V9.02111C321.7 6.02448 319.59 4.80203 316.994 6.30576L61.6854 153.703C60.3158 154.595 59.176 155.798 58.3583 157.213C57.5407 158.629 57.0683 160.217 56.9795 161.849V368.379C56.9795 371.375 59.089 372.598 61.6854 371.094Z" fill="#BA68C8"/>
<path opacity="0.5" d="M61.6854 371.094L316.994 223.697C318.365 222.806 319.506 221.603 320.323 220.188C321.141 218.772 321.613 217.183 321.7 215.551V9.02111C321.7 6.02448 319.59 4.80203 316.994 6.30576L61.6854 153.703C60.3158 154.595 59.176 155.798 58.3583 157.213C57.5407 158.629 57.0683 160.217 56.9795 161.849V368.379C56.9795 371.375 59.089 372.598 61.6854 371.094Z" fill="black"/>
<path d="M60.9931 376.458C59.6543 377.042 58.2047 377.33 56.7442 377.3C55.2837 377.27 53.8471 376.924 52.5333 376.285C51.2364 375.384 50.1692 374.192 49.4176 372.803C48.6659 371.414 48.251 369.869 48.2061 368.29V349.488L57.0229 354.594V373.396C56.9688 376.133 58.7105 377.377 60.9931 376.458Z" fill="#BA68C8"/>
<path opacity="0.5" d="M60.9931 376.458C59.6543 377.042 58.2047 377.33 56.7442 377.3C55.2837 377.27 53.8471 376.924 52.5333 376.285C51.2364 375.384 50.1692 374.192 49.4176 372.803C48.6659 371.414 48.251 369.869 48.2061 368.29V349.488L57.0229 354.594V373.396C56.9688 376.133 58.7105 377.377 60.9931 376.458Z" fill="black"/>
<path d="M56.9697 354.598V373.4C56.9697 376.397 59.1334 377.608 61.6756 376.115L316.984 228.718C318.348 227.829 319.483 226.633 320.301 225.226C321.118 223.819 321.594 222.24 321.69 220.615V201.727L56.9697 354.598Z" fill="#BA68C8"/>
<path opacity="0.3" d="M56.9795 354.555V373.4C56.9795 376.397 59.1431 377.608 61.6854 376.115L316.994 228.718C318.355 227.828 319.489 226.632 320.304 225.224C321.12 223.817 321.594 222.239 321.689 220.615V201.727L56.9795 354.555Z" fill="black"/>
<path d="M65.7969 330.96V164.782C65.8472 163.803 66.1283 162.85 66.6171 162C67.1059 161.151 67.7886 160.428 68.6096 159.893L310.006 20.479C311.564 19.5811 312.83 20.3059 312.83 22.1017V188.366C312.777 189.346 312.494 190.299 312.003 191.149C311.513 191.999 310.828 192.721 310.006 193.256L68.6204 332.637C67.0626 333.535 65.7969 332.799 65.7969 330.96Z" fill="#BA68C8"/>
<path d="M65.7969 330.96V164.782C65.8472 163.803 66.1283 162.85 66.6171 162C67.1059 161.151 67.7886 160.428 68.6096 159.893L310.006 20.479C311.564 19.5811 312.83 20.3059 312.83 22.1017V188.366C312.777 189.346 312.494 190.299 312.003 191.149C311.513 191.999 310.828 192.721 310.006 193.256L68.6204 332.637C67.0626 333.535 65.7969 332.799 65.7969 330.96Z" fill="#263238"/>
<path d="M189.329 284.148C188.044 284.984 186.974 286.111 186.207 287.438C185.44 288.766 184.998 290.255 184.915 291.786C184.915 294.599 186.895 295.745 189.329 294.339C190.615 293.502 191.686 292.373 192.453 291.044C193.22 289.715 193.662 288.223 193.743 286.69C193.743 283.878 191.763 282.742 189.329 284.148Z" fill="#BA68C8"/>
<path opacity="0.7" d="M58.3643 157.198C57.5259 158.607 57.0467 160.201 56.9688 161.839V354.597L48.2061 349.49V156.787C48.2628 155.143 48.7395 153.542 49.5908 152.135L58.3643 157.198Z" fill="black"/>
<path opacity="0.3" d="M321.645 8.24451C321.31 5.82125 319.352 4.99907 316.983 6.30807L61.6742 153.706C60.2899 154.571 59.1474 155.773 58.353 157.2L49.5254 152.104C50.3251 150.678 51.471 149.477 52.8574 148.61L308.166 1.22353C309.565 0.479979 311.121 0.0768115 312.705 0.0467377C314.29 0.0166639 315.859 0.360531 317.286 1.05044C318.485 1.8676 319.495 2.93275 320.247 4.17388C320.999 5.41501 321.476 6.80318 321.645 8.24451Z" fill="black"/>
<path d="M335.419 33.6661C335.04 33.4758 334.616 33.3924 334.193 33.4248C333.77 33.4572 333.363 33.6042 333.017 33.85L92.1186 173.015C91.168 173.644 90.3789 174.487 89.8151 175.478C89.2512 176.468 88.9285 177.578 88.8731 178.716V343.877C88.8394 344.434 88.9501 344.991 89.1946 345.493C89.4391 345.996 89.809 346.426 90.2687 346.744C90.7988 347.036 93.6331 348.68 94.4769 349.134C94.7755 349.287 95.109 349.357 95.4435 349.338C95.7781 349.319 96.1015 349.211 96.3809 349.026L337.226 209.861C338.176 209.233 338.965 208.389 339.529 207.398C340.093 206.408 340.416 205.299 340.471 204.16V38.1448C340.519 37.7253 340.45 37.3006 340.27 36.9184C340.091 36.5363 339.808 36.2117 339.454 35.9812C338.913 35.6242 336.025 34.0231 335.419 33.6661Z" fill="#BA68C8"/>
<path d="M96.3275 175.351L337.237 36.2402C339.055 35.1584 340.483 36.0455 340.483 38.1442V204.16C340.427 205.298 340.104 206.407 339.541 207.398C338.977 208.388 338.188 209.232 337.237 209.861L96.3275 349.026C94.51 350.108 93.082 348.366 93.082 346.267V181.052C93.1392 179.914 93.4626 178.806 94.0262 177.815C94.5899 176.825 95.3781 175.981 96.3275 175.351Z" fill="#FAFAFA"/>
<path d="M338.708 36.867C339.347 36.867 339.444 37.6675 339.444 38.1435V204.159C339.386 205.112 339.106 206.039 338.627 206.865C338.148 207.691 337.483 208.395 336.685 208.919L95.8082 348.084C95.6465 348.189 95.4598 348.248 95.2673 348.257C94.6615 348.257 94.1855 347.327 94.1855 346.266V181.051C94.2377 180.098 94.5088 179.17 94.9779 178.339C95.4469 177.508 96.1013 176.796 96.89 176.259L337.778 37.1699C338.057 36.99 338.377 36.8857 338.708 36.867ZM338.708 35.7852C338.187 35.8073 337.68 35.9639 337.237 36.2395L96.3275 175.35C95.3781 175.98 94.5899 176.824 94.0262 177.815C93.4626 178.805 93.1392 179.913 93.082 181.051V346.266C93.082 347.932 94.0124 349.339 95.2457 349.339C95.6276 349.331 96.0009 349.223 96.3275 349.025L337.226 209.86C338.177 209.231 338.966 208.388 339.53 207.397C340.094 206.407 340.416 205.297 340.472 204.159V38.1435C340.472 36.6506 339.736 35.7852 338.654 35.7852H338.708Z" fill="#E0E0E0"/>
<path d="M90.2036 346.743C90.5606 346.927 93.1245 348.387 94.2496 349.036C93.8456 348.701 93.5256 348.276 93.3152 347.795C93.1048 347.314 93.0099 346.791 93.038 346.267V191.838L88.8189 189.371V343.876C88.7839 344.433 88.893 344.989 89.1355 345.491C89.3781 345.993 89.7459 346.424 90.2036 346.743Z" fill="#F0F0F0"/>
<path d="M340.526 38.1101C340.526 36.033 339.044 35.1892 337.28 36.2385L96.3275 175.349C95.3781 175.979 94.5899 176.823 94.0262 177.814C93.4626 178.804 93.1392 179.912 93.082 181.05V191.869L340.526 48.9282V38.1101Z" fill="#BA68C8"/>
<g opacity="0.4">
<path d="M337.238 36.2414L96.3279 175.341C95.361 175.951 94.5645 176.796 94.0128 177.797L89.8262 175.363C90.3769 174.397 91.1667 173.589 92.1196 173.015L333.018 33.8505C333.363 33.603 333.769 33.4541 334.192 33.4198C334.615 33.3854 335.04 33.4671 335.42 33.6558C336.004 34.0236 338.741 35.5706 339.444 35.9493C339.081 35.8144 338.689 35.7705 338.305 35.8214C337.92 35.8723 337.554 36.0165 337.238 36.2414Z" fill="white"/>
</g>
<path opacity="0.15" d="M88.8184 189.38V178.659C88.8628 177.491 89.2094 176.354 89.8244 175.359L94.0219 177.783C93.4157 178.76 93.0763 179.879 93.0374 181.028V191.846L88.8184 189.38Z" fill="black"/>
<path d="M289.723 162.65L145.441 245.95C144.739 246.406 144.155 247.02 143.736 247.744C143.317 248.468 143.074 249.28 143.028 250.115V291.484C143.074 292.319 143.317 293.132 143.736 293.855C144.155 294.579 144.739 295.194 145.441 295.649L149.649 298.072C150.397 298.451 151.223 298.648 152.061 298.648C152.9 298.648 153.726 298.451 154.474 298.072L298.734 214.772C299.436 214.315 300.02 213.698 300.439 212.973C300.858 212.247 301.101 211.433 301.147 210.597V169.217C301.101 168.382 300.858 167.569 300.439 166.846C300.02 166.122 299.436 165.507 298.734 165.052L294.515 162.629C293.77 162.257 292.949 162.065 292.116 162.068C291.284 162.072 290.464 162.272 289.723 162.65Z" fill="#BA68C8"/>
<path opacity="0.5" d="M301.145 168.849C300.972 167.605 299.966 167.15 298.755 167.853L154.473 251.153C153.761 251.595 153.176 252.214 152.774 252.949L143.741 247.735C144.146 247.011 144.726 246.401 145.429 245.961L289.721 162.661C290.467 162.282 291.292 162.084 292.129 162.084C292.965 162.084 293.79 162.282 294.536 162.661L298.755 165.084C299.398 165.505 299.944 166.059 300.356 166.708C300.768 167.358 301.037 168.087 301.145 168.849Z" fill="white"/>
<path d="M154.063 298.279C153.356 298.557 152.599 298.684 151.841 298.65C151.082 298.617 150.339 298.424 149.66 298.084L145.441 295.661C144.74 295.204 144.157 294.589 143.738 293.866C143.319 293.142 143.076 292.331 143.028 291.496V250.127C143.061 249.283 143.306 248.46 143.742 247.736L152.775 252.951C152.337 253.665 152.09 254.482 152.061 255.32V296.699C152.061 298.073 152.927 298.712 154.063 298.279Z" fill="#263238"/>
<path d="M154.474 251.154L298.756 167.854C300.086 167.086 301.168 167.702 301.168 169.238V210.618C301.122 211.454 300.88 212.269 300.461 212.994C300.042 213.72 299.457 214.336 298.756 214.794L154.495 298.094C153.165 298.862 152.083 298.234 152.083 296.698V255.329C152.126 254.495 152.365 253.682 152.781 252.956C153.196 252.231 153.776 251.614 154.474 251.154Z" fill="#BA68C8"/>
<path d="M251.468 184.744L145.45 245.964C144.748 246.405 144.168 247.015 143.763 247.738L152.796 252.953C153.198 252.218 153.783 251.599 154.494 251.157L260.512 189.948L251.468 184.744Z" fill="#455A64"/>
<path d="M260.492 189.945L154.474 251.154C153.772 251.612 153.188 252.229 152.769 252.954C152.35 253.68 152.107 254.494 152.062 255.33V296.688C152.062 298.224 153.143 298.852 154.474 298.084L260.492 236.875V189.945Z" fill="#37474F"/>
<path d="M178.922 246.113L233.63 214.534C235.891 213.225 237.73 214.156 237.73 216.612C237.629 217.991 237.204 219.327 236.49 220.511C235.775 221.695 234.792 222.694 233.619 223.427L178.922 255.016C176.661 256.325 174.812 255.395 174.812 252.939C174.914 251.558 175.339 250.221 176.053 249.036C176.767 247.85 177.75 246.849 178.922 246.113Z" fill="#BA68C8"/>
<path d="M190.13 256.574C190.14 256.562 190.152 256.553 190.166 256.547C190.18 256.54 190.195 256.537 190.211 256.537C190.226 256.537 190.241 256.54 190.255 256.547C190.269 256.553 190.282 256.562 190.292 256.574C190.34 256.647 190.363 256.735 190.357 256.823V262.978C190.358 263.573 190.307 264.166 190.205 264.752C190.116 265.288 189.964 265.811 189.751 266.31C189.557 266.768 189.302 267.197 188.994 267.587C188.689 267.948 188.323 268.252 187.912 268.485C187.59 268.694 187.214 268.807 186.83 268.809C186.683 268.797 186.54 268.756 186.41 268.687C186.28 268.618 186.165 268.524 186.073 268.409C185.835 268.091 185.679 267.719 185.619 267.327C185.515 266.803 185.468 266.27 185.478 265.737V259.57C185.478 259.462 185.5 259.356 185.543 259.257C185.569 259.167 185.627 259.091 185.705 259.04L186.387 258.64C186.409 258.619 186.438 258.608 186.468 258.608C186.498 258.608 186.527 258.619 186.549 258.64C186.599 258.713 186.622 258.801 186.614 258.889V264.969C186.606 265.303 186.638 265.637 186.711 265.964C186.741 266.173 186.831 266.368 186.971 266.526C187.019 266.584 187.081 266.63 187.15 266.66C187.22 266.69 187.295 266.704 187.371 266.7C187.556 266.687 187.735 266.628 187.89 266.526C188.083 266.411 188.258 266.269 188.41 266.105C188.578 265.91 188.717 265.691 188.821 265.455C188.943 265.178 189.033 264.888 189.091 264.59C189.154 264.233 189.183 263.871 189.178 263.508V257.418C189.181 257.309 189.207 257.202 189.253 257.104C189.28 257.015 189.337 256.938 189.416 256.887L190.13 256.574Z" fill="#FAFAFA"/>
<path d="M194.371 262.394C194.377 262.315 194.358 262.235 194.317 262.167C194.291 262.139 194.259 262.117 194.223 262.104C194.188 262.091 194.149 262.087 194.111 262.091C193.979 262.073 193.844 262.073 193.711 262.091L193.084 262.21C192.881 262.261 192.669 262.261 192.467 262.21C192.308 262.159 192.171 262.056 192.078 261.918C191.972 261.743 191.902 261.548 191.872 261.345C191.766 260.765 191.766 260.172 191.872 259.592C191.953 259.26 192.069 258.937 192.218 258.63C192.366 258.322 192.548 258.032 192.759 257.764C192.964 257.509 193.213 257.292 193.495 257.126C193.722 256.987 193.977 256.899 194.241 256.866C194.433 256.846 194.626 256.888 194.793 256.985C194.952 257.082 195.076 257.226 195.15 257.396C195.237 257.598 195.285 257.815 195.291 258.035C195.302 258.143 195.279 258.253 195.226 258.348C195.199 258.437 195.142 258.514 195.063 258.565L194.414 258.943C194.385 258.96 194.351 258.969 194.317 258.969C194.283 258.969 194.249 258.96 194.22 258.943L194.079 258.835C194.023 258.791 193.955 258.765 193.884 258.759C193.745 258.775 193.612 258.823 193.495 258.9C193.325 259.002 193.175 259.134 193.051 259.289C192.92 259.46 192.852 259.67 192.856 259.884C192.841 259.967 192.841 260.051 192.856 260.133C192.877 260.164 192.904 260.189 192.936 260.208C192.968 260.227 193.004 260.238 193.04 260.241C193.159 260.261 193.279 260.261 193.397 260.241L194.003 260.133C194.512 260.036 194.858 260.133 195.085 260.415C195.324 260.815 195.433 261.28 195.399 261.745C195.396 262.067 195.352 262.387 195.269 262.697C195.183 263.035 195.06 263.361 194.901 263.671C194.742 263.991 194.542 264.289 194.306 264.558C194.082 264.821 193.815 265.044 193.516 265.218C193.279 265.37 193.008 265.463 192.727 265.488C192.523 265.495 192.323 265.439 192.153 265.326C191.986 265.212 191.858 265.05 191.785 264.861C191.698 264.656 191.654 264.435 191.656 264.212C191.646 264.1 191.668 263.987 191.721 263.887C191.747 263.798 191.805 263.721 191.883 263.671L192.532 263.292C192.618 263.292 192.683 263.238 192.727 263.292L192.867 263.444C192.896 263.476 192.931 263.502 192.97 263.521C193.009 263.539 193.051 263.55 193.094 263.552C193.247 263.553 193.395 263.503 193.516 263.411C193.712 263.3 193.887 263.158 194.036 262.989C194.109 262.9 194.171 262.802 194.22 262.697C194.296 262.611 194.348 262.507 194.371 262.394Z" fill="#FAFAFA"/>
<path d="M196.578 259.462C196.576 258.9 196.624 258.339 196.719 257.785C196.809 257.264 196.951 256.753 197.141 256.26C197.3 255.818 197.518 255.399 197.79 255.016C198.017 254.686 198.312 254.409 198.656 254.204C198.906 254.036 199.212 253.97 199.51 254.02C199.775 254.082 200.006 254.24 200.159 254.464C200.363 254.758 200.506 255.088 200.581 255.438C200.685 255.892 200.736 256.356 200.733 256.822V257.493C200.736 257.606 200.71 257.718 200.657 257.818C200.63 257.907 200.573 257.984 200.495 258.034L197.682 259.668C197.675 259.858 197.701 260.048 197.758 260.23C197.8 260.353 197.874 260.461 197.974 260.544C198.063 260.614 198.175 260.649 198.288 260.641C198.418 260.626 198.544 260.581 198.656 260.511C198.819 260.423 198.966 260.305 199.088 260.165C199.199 260.041 199.293 259.902 199.37 259.754C199.416 259.669 199.466 259.586 199.521 259.505C199.567 259.45 199.622 259.403 199.683 259.365L200.354 258.975C200.377 258.957 200.406 258.947 200.435 258.947C200.465 258.947 200.493 258.957 200.516 258.975C200.545 259.009 200.565 259.049 200.576 259.092C200.588 259.135 200.589 259.18 200.581 259.224C200.569 259.435 200.526 259.643 200.451 259.841C200.358 260.141 200.235 260.431 200.084 260.706C199.914 261.023 199.711 261.32 199.478 261.593C199.245 261.872 198.967 262.11 198.656 262.296C198.4 262.464 198.094 262.537 197.79 262.502C197.524 262.438 197.292 262.276 197.141 262.048C196.928 261.719 196.784 261.351 196.719 260.966C196.621 260.471 196.574 259.967 196.578 259.462ZM198.656 256.011C198.489 256.101 198.345 256.226 198.234 256.379C198.114 256.53 198.015 256.698 197.942 256.876C197.866 257.055 197.804 257.24 197.758 257.428C197.72 257.599 197.694 257.773 197.682 257.947L199.586 256.866C199.575 256.716 199.553 256.568 199.521 256.422C199.504 256.291 199.452 256.168 199.37 256.065C199.337 256.018 199.295 255.979 199.247 255.949C199.199 255.919 199.145 255.9 199.088 255.892C198.934 255.879 198.781 255.921 198.656 256.011Z" fill="#FAFAFA"/>
<path d="M204.129 252.992C203.801 253.179 203.543 253.468 203.393 253.814C203.225 254.271 203.148 254.756 203.166 255.242V259.148C203.167 259.259 203.145 259.37 203.101 259.472C203.075 259.561 203.017 259.638 202.939 259.689L202.3 260.056C202.29 260.068 202.278 260.077 202.264 260.083C202.25 260.09 202.235 260.093 202.219 260.093C202.204 260.093 202.189 260.09 202.175 260.083C202.161 260.077 202.148 260.068 202.138 260.056C202.09 259.983 202.067 259.895 202.073 259.808V252.808C202.074 252.697 202.096 252.587 202.138 252.484C202.168 252.396 202.225 252.321 202.3 252.267L202.939 251.9C202.961 251.879 202.99 251.868 203.02 251.868C203.05 251.868 203.079 251.879 203.101 251.9C203.151 251.968 203.174 252.053 203.166 252.138V252.484C203.295 252.193 203.454 251.918 203.642 251.662C203.813 251.425 204.035 251.229 204.291 251.088L204.68 250.861C204.701 250.841 204.728 250.83 204.756 250.83C204.785 250.83 204.812 250.841 204.832 250.861C204.884 250.933 204.911 251.021 204.908 251.11V252.094C204.906 252.207 204.88 252.317 204.832 252.419C204.805 252.505 204.752 252.58 204.68 252.635L204.129 252.992Z" fill="#FAFAFA"/>
<path d="M212.2 252.473C212.211 252.461 212.223 252.452 212.237 252.446C212.251 252.439 212.266 252.436 212.282 252.436C212.297 252.436 212.312 252.439 212.326 252.446C212.34 252.452 212.353 252.461 212.363 252.473C212.411 252.546 212.434 252.634 212.428 252.722V253.803C212.427 253.915 212.405 254.025 212.363 254.128C212.326 254.208 212.27 254.279 212.2 254.334L208.501 256.497C208.479 256.518 208.45 256.529 208.42 256.529C208.389 256.529 208.36 256.518 208.338 256.497C208.29 256.428 208.267 256.344 208.274 256.259V246.523C208.274 246.412 208.296 246.301 208.338 246.198C208.369 246.114 208.426 246.042 208.501 245.993L209.182 245.593C209.204 245.572 209.233 245.561 209.263 245.561C209.293 245.561 209.322 245.572 209.345 245.593C209.393 245.662 209.416 245.746 209.409 245.831V254.063L212.2 252.473Z" fill="#FAFAFA"/>
<path d="M215.519 244.469C215.762 244.3 216.056 244.22 216.352 244.242C216.605 244.262 216.841 244.378 217.012 244.566C217.213 244.798 217.361 245.071 217.444 245.367C217.56 245.75 217.625 246.146 217.639 246.546C217.639 246.633 217.639 246.752 217.639 246.892V247.725C217.639 247.855 217.639 247.974 217.639 248.071C217.618 248.542 217.553 249.009 217.444 249.467C217.344 249.913 217.199 250.348 217.012 250.765C216.84 251.153 216.618 251.517 216.352 251.847C216.124 252.146 215.841 252.399 215.519 252.593C215.268 252.756 214.973 252.836 214.675 252.821C214.425 252.799 214.193 252.683 214.026 252.496C213.818 252.273 213.67 252.001 213.593 251.706C213.478 251.323 213.412 250.927 213.398 250.527C213.398 250.441 213.398 250.332 213.398 250.192V249.359C213.398 249.218 213.398 249.099 213.398 249.013C213.411 248.539 213.473 248.067 213.582 247.606C213.688 247.157 213.836 246.718 214.026 246.297C214.198 245.912 214.416 245.548 214.675 245.215C214.904 244.913 215.191 244.66 215.519 244.469ZM216.536 247.26C216.535 247.021 216.495 246.783 216.417 246.557C216.376 246.419 216.293 246.298 216.179 246.211C216.087 246.149 215.975 246.122 215.865 246.135C215.741 246.158 215.624 246.206 215.519 246.276C215.392 246.345 215.275 246.433 215.173 246.535C215.049 246.664 214.943 246.81 214.859 246.968C214.75 247.165 214.67 247.376 214.621 247.595C214.55 247.872 214.506 248.154 214.491 248.439C214.491 248.526 214.491 248.623 214.491 248.742V249.51C214.491 249.629 214.491 249.727 214.491 249.791C214.501 250.031 214.545 250.267 214.621 250.495C214.66 250.633 214.744 250.754 214.859 250.841C214.904 250.873 214.955 250.895 215.009 250.906C215.063 250.917 215.119 250.917 215.173 250.906C215.295 250.885 215.413 250.841 215.519 250.776C215.644 250.704 215.76 250.616 215.865 250.516C215.986 250.384 216.091 250.239 216.179 250.084C216.283 249.885 216.363 249.674 216.417 249.456C216.487 249.18 216.527 248.897 216.536 248.612C216.542 248.511 216.542 248.41 216.536 248.309V247.552C216.542 247.455 216.542 247.357 216.536 247.26Z" fill="#FAFAFA"/>
<path d="M220.95 250.799C221.089 250.715 221.213 250.609 221.318 250.486C221.448 250.333 221.561 250.166 221.654 249.988C221.761 249.771 221.844 249.542 221.902 249.307C221.969 249.041 222.002 248.769 222 248.495V247.943C222 248.052 221.892 248.181 221.816 248.333C221.742 248.491 221.655 248.643 221.556 248.787C221.443 248.939 221.32 249.084 221.188 249.22C221.053 249.362 220.896 249.483 220.723 249.577C220.612 249.653 220.487 249.705 220.355 249.731C220.223 249.757 220.087 249.756 219.955 249.728C219.715 249.653 219.508 249.496 219.371 249.285C219.195 249.005 219.067 248.698 218.992 248.376C218.9 247.968 218.849 247.551 218.841 247.132C218.841 246.991 218.841 246.818 218.841 246.613C218.841 246.407 218.841 246.234 218.841 246.083C218.854 245.607 218.905 245.133 218.992 244.666C219.081 244.205 219.208 243.753 219.371 243.313C219.524 242.932 219.72 242.569 219.955 242.231C220.155 241.933 220.417 241.682 220.723 241.496C220.867 241.409 221.024 241.347 221.188 241.312C221.31 241.289 221.435 241.289 221.556 241.312C221.652 241.339 221.741 241.387 221.816 241.453C221.885 241.505 221.947 241.567 222 241.636V241.29C222 241.179 222.022 241.069 222.065 240.966C222.095 240.881 222.152 240.809 222.227 240.76L222.865 240.382C222.887 240.361 222.916 240.35 222.946 240.35C222.976 240.35 223.005 240.361 223.027 240.382C223.08 240.454 223.106 240.541 223.103 240.63V247.662C223.132 248.715 222.937 249.763 222.53 250.735C222.21 251.499 221.658 252.143 220.95 252.574C220.709 252.723 220.434 252.809 220.15 252.822C219.925 252.836 219.702 252.779 219.512 252.66C219.329 252.523 219.18 252.345 219.079 252.141C218.973 251.894 218.915 251.63 218.906 251.362C218.896 251.25 218.918 251.137 218.971 251.037C218.997 250.948 219.055 250.872 219.133 250.821L219.706 250.497C219.719 250.482 219.735 250.471 219.753 250.464C219.771 250.456 219.79 250.452 219.809 250.452C219.828 250.452 219.847 250.456 219.865 250.464C219.883 250.471 219.899 250.482 219.912 250.497C219.965 250.553 220.012 250.614 220.052 250.68C220.118 250.796 220.227 250.882 220.355 250.918C220.485 251.016 220.68 250.908 220.95 250.799ZM219.933 245.553C219.933 245.841 219.933 246.122 219.933 246.396C219.903 246.828 220.025 247.258 220.28 247.608C220.376 247.691 220.499 247.737 220.626 247.737C220.753 247.737 220.876 247.691 220.972 247.608C221.286 247.404 221.531 247.11 221.675 246.764C221.872 246.313 221.982 245.828 222 245.336C222 245.174 222 244.979 222 244.752C222 244.525 222 244.33 222 244.19C222.022 243.802 221.907 243.419 221.675 243.108C221.579 243.02 221.454 242.971 221.324 242.971C221.193 242.971 221.068 243.02 220.972 243.108C220.664 243.311 220.423 243.601 220.28 243.941C220.057 244.449 219.94 244.998 219.933 245.553Z" fill="#FAFAFA"/>
<path d="M225.625 235.943C225.646 235.926 225.673 235.916 225.7 235.916C225.728 235.916 225.755 235.926 225.776 235.943C225.833 236.013 225.86 236.102 225.852 236.192V237.371C225.852 237.484 225.827 237.595 225.776 237.696C225.746 237.777 225.693 237.848 225.625 237.901L224.9 238.323C224.89 238.335 224.877 238.344 224.863 238.35C224.849 238.357 224.834 238.36 224.819 238.36C224.803 238.36 224.788 238.357 224.774 238.35C224.76 238.344 224.748 238.335 224.737 238.323C224.709 238.291 224.688 238.253 224.675 238.212C224.662 238.171 224.657 238.128 224.662 238.085V236.906C224.661 236.793 224.687 236.682 224.737 236.581C224.768 236.497 224.825 236.425 224.9 236.376L225.625 235.943ZM225.808 246.101C225.809 246.209 225.787 246.316 225.744 246.415C225.709 246.5 225.653 246.575 225.581 246.632L224.932 246.999C224.923 247.011 224.912 247.02 224.898 247.026C224.885 247.032 224.871 247.036 224.856 247.036C224.842 247.036 224.828 247.032 224.815 247.026C224.801 247.02 224.79 247.011 224.781 246.999C224.724 246.929 224.697 246.84 224.705 246.751V239.751C224.704 239.639 224.73 239.527 224.781 239.427C224.811 239.342 224.864 239.268 224.932 239.21L225.581 238.842C225.603 238.822 225.632 238.811 225.662 238.811C225.693 238.811 225.722 238.822 225.744 238.842C225.792 238.912 225.815 238.996 225.808 239.08V246.101Z" fill="#FAFAFA"/>
<path d="M231.499 242.803C231.499 242.914 231.477 243.024 231.434 243.127C231.404 243.212 231.347 243.284 231.272 243.333L230.623 243.712C230.603 243.731 230.576 243.743 230.547 243.743C230.519 243.743 230.492 243.731 230.472 243.712C230.415 243.642 230.388 243.552 230.396 243.463V239.655C230.429 239.205 230.347 238.755 230.158 238.346C230.006 238.075 229.768 238.032 229.433 238.227C229.099 238.452 228.851 238.784 228.73 239.168C228.549 239.678 228.461 240.217 228.47 240.758V244.577C228.47 244.688 228.448 244.799 228.405 244.902C228.379 244.991 228.321 245.068 228.243 245.118L227.605 245.486C227.595 245.497 227.582 245.507 227.568 245.513C227.554 245.519 227.539 245.522 227.524 245.522C227.508 245.522 227.493 245.519 227.479 245.513C227.465 245.507 227.453 245.497 227.443 245.486C227.392 245.417 227.369 245.332 227.378 245.248V238.248C227.376 238.137 227.398 238.026 227.443 237.924C227.469 237.835 227.527 237.758 227.605 237.708L228.243 237.34C228.253 237.328 228.266 237.319 228.28 237.313C228.294 237.306 228.309 237.303 228.324 237.303C228.34 237.303 228.355 237.306 228.369 237.313C228.383 237.319 228.395 237.328 228.405 237.34C228.454 237.413 228.477 237.501 228.47 237.589V237.924C228.613 237.594 228.787 237.279 228.99 236.983C229.168 236.71 229.409 236.483 229.693 236.323C229.939 236.143 230.245 236.065 230.547 236.106C230.667 236.137 230.779 236.192 230.876 236.268C230.973 236.345 231.053 236.441 231.11 236.55C231.267 236.843 231.37 237.162 231.413 237.491C231.471 237.921 231.499 238.355 231.499 238.789V242.803Z" fill="#FAFAFA"/>
<path d="M286.065 211.308L275.561 217.366L277.194 202.632C275.928 201.961 275.128 200.328 275.128 197.98C275.128 193.793 277.681 188.936 280.818 187.162C283.956 185.388 286.498 187.27 286.498 191.489C286.433 193.972 285.725 196.394 284.442 198.521L286.065 211.308Z" fill="#455A64"/>
<path d="M286.077 211.312L276.827 205.978L275.562 217.381L286.077 211.312Z" fill="#37474F"/>
<path d="M280.797 187.135C278.509 188.681 276.803 190.946 275.95 193.572L284.421 198.462C285.703 196.335 286.411 193.912 286.476 191.43C286.498 187.243 283.956 185.329 280.797 187.135Z" fill="#37474F"/>
<path d="M229.735 138.07C226.133 135.993 221.167 136.285 215.672 139.455C204.702 145.794 195.81 161.188 195.81 173.856C195.81 180.217 198.06 184.674 201.673 186.73L208.672 190.798C212.264 192.875 217.23 192.572 222.736 189.402C233.706 183.073 242.598 167.668 242.598 155C242.598 148.672 240.37 144.182 236.778 142.159" fill="#BA68C8"/>
<path d="M222.726 143.535C211.757 149.875 202.864 165.28 202.864 177.937C202.864 190.594 211.757 195.744 222.726 189.404C233.696 183.065 242.599 167.671 242.589 155.002C242.578 142.334 233.685 137.207 222.726 143.535Z" fill="#BA68C8"/>
<path d="M233.685 171.642V173.092C231.057 177.783 227.288 181.734 222.726 184.581C218.453 187.036 214.591 187.307 211.757 185.738V182.752C211.902 179.646 212.789 176.619 214.344 173.926C215.898 171.233 218.075 168.951 220.693 167.272L223.581 165.606C226.134 164.134 228.622 163.94 230.57 165.076C232.517 166.211 233.685 168.602 233.685 171.642Z" fill="#BA68C8"/>
<path opacity="0.4" d="M229.736 138.072L236.767 142.162C233.176 140.074 228.21 140.366 222.704 143.536C215.52 147.69 209.224 155.728 205.741 164.339L198.698 160.26C202.193 151.606 208.435 143.611 215.661 139.457C221.178 136.298 226.144 135.995 229.736 138.072Z" fill="white"/>
<path opacity="0.2" d="M208.423 190.634L201.684 186.729C198.07 184.674 195.82 180.238 195.82 173.855L202.863 177.945C202.906 184.111 204.983 188.503 208.423 190.634Z" fill="black"/>
<path opacity="0.1" d="M198.719 160.26L205.762 164.338C203.957 168.649 202.988 173.264 202.906 177.937L195.863 173.847C195.95 169.179 196.919 164.568 198.719 160.26Z" fill="black"/>
<path d="M220.216 164.922C219.545 164.929 218.884 164.757 218.301 164.424C217.599 163.956 217.036 163.307 216.672 162.545C216.308 161.783 216.157 160.938 216.235 160.097C216.326 158.126 216.889 156.206 217.875 154.497C218.861 152.788 220.243 151.34 221.903 150.274C222.57 149.742 223.383 149.423 224.234 149.359C225.085 149.296 225.936 149.491 226.674 149.919C227.413 150.346 228.005 150.987 228.374 151.757C228.743 152.527 228.87 153.39 228.74 154.234C228.647 156.204 228.084 158.124 227.097 159.833C226.111 161.541 224.731 162.99 223.072 164.057C222.213 164.593 221.227 164.891 220.216 164.922Z" fill="white"/>
<path d="M230.57 165.064C228.622 163.928 226.134 164.122 223.581 165.594L220.693 167.26C218.074 168.94 215.896 171.224 214.341 173.919C212.786 176.614 211.9 179.643 211.757 182.751V185.748C214.591 187.317 218.453 187.046 222.726 184.59C227.288 181.744 231.057 177.792 233.685 173.101V171.652C233.685 168.601 232.56 166.21 230.57 165.064Z" fill="white"/>
<path d="M452.966 352.217C452.966 352.217 454.405 339.581 460.69 329.769C466.975 319.957 475.608 313.845 483.668 313.207C491.727 312.568 498.24 319.99 489.618 325.107C480.996 330.224 465.677 335.395 458.624 354.435L452.966 352.217Z" fill="#BA68C8"/>
<path opacity="0.1" d="M452.966 352.217C452.966 352.217 454.405 339.581 460.69 329.769C466.975 319.957 475.608 313.845 483.668 313.207C491.727 312.568 498.24 319.99 489.618 325.107C480.996 330.224 465.677 335.395 458.624 354.435L452.966 352.217Z" fill="black"/>
<path d="M455.335 348.929H455.249C455.143 348.886 455.058 348.802 455.014 348.697C454.969 348.591 454.968 348.472 455.011 348.366C463.514 327.433 479.698 318.681 487.076 316.994C487.131 316.981 487.189 316.979 487.245 316.988C487.301 316.998 487.355 317.018 487.403 317.048C487.451 317.078 487.493 317.118 487.526 317.164C487.559 317.21 487.582 317.263 487.595 317.318C487.608 317.373 487.61 317.431 487.6 317.487C487.591 317.543 487.571 317.597 487.54 317.645C487.51 317.693 487.471 317.735 487.425 317.768C487.378 317.801 487.326 317.825 487.271 317.837C480.044 319.503 464.174 328.093 455.811 348.702C455.77 348.788 455.7 348.857 455.613 348.899C455.527 348.94 455.429 348.951 455.335 348.929Z" fill="white"/>
<path d="M498.368 349.176C497.643 350.82 495.847 351.686 494.181 352.356C492.515 353.027 490.698 353.752 489.789 355.31C487.972 358.447 490.958 362.882 489.01 365.922C488.552 366.534 487.974 367.047 487.313 367.43C486.651 367.813 485.918 368.058 485.159 368.151C483.915 368.378 482.649 368.378 481.394 368.486C480.793 368.478 480.194 368.431 479.599 368.345C477.85 367.955 476.023 368.149 474.395 368.897C471.896 370.304 471.15 373.452 469.613 375.886C468.675 377.319 467.438 378.533 465.987 379.444C464.537 380.355 462.906 380.942 461.208 381.165C460.126 381.306 457.962 381.511 456.88 380.873C456.796 380.831 456.716 380.781 456.642 380.721C456.48 380.548 456.285 380.321 456.199 380.202C456.193 380.177 456.193 380.151 456.199 380.126C455.755 378.493 456.48 376.805 456.513 375.118V374.815C456.437 372.857 456.383 370.909 456.34 368.962C456.246 365.356 456.21 361.75 456.231 358.144C456.231 355.807 455.972 353.254 456.967 351.058C458.049 348.635 460.775 348.581 461.803 346.212C462.214 345.26 462.43 344.253 462.83 343.291C463.449 341.891 464.44 340.688 465.695 339.812C466.95 338.937 468.422 338.422 469.949 338.325C474.698 338.087 478.95 341.928 483.699 341.571C484.921 341.473 486.122 341.095 487.334 340.878C491.174 340.153 495.62 341.246 497.784 344.502C498.259 345.173 498.561 345.95 498.662 346.766C498.764 347.581 498.663 348.409 498.368 349.176Z" fill="#BA68C8"/>
<path d="M455.724 372.631C455.622 372.6 455.535 372.532 455.483 372.439C455.43 372.346 455.416 372.236 455.443 372.133C461.999 347.532 487.897 344.006 493.988 344.417C494.042 344.42 494.094 344.433 494.142 344.456C494.191 344.48 494.234 344.513 494.269 344.553C494.304 344.593 494.331 344.64 494.348 344.691C494.365 344.742 494.371 344.796 494.367 344.85C494.356 344.955 494.305 345.052 494.224 345.12C494.143 345.189 494.04 345.223 493.934 345.217C487.995 344.795 462.637 348.268 456.222 372.349C456.192 372.452 456.123 372.538 456.03 372.591C455.937 372.643 455.827 372.657 455.724 372.631Z" fill="white"/>
<path d="M484.532 360.17C484.45 360.158 484.374 360.12 484.316 360.061C481.922 357.986 479.099 356.465 476.049 355.607C472.999 354.749 469.797 354.574 466.672 355.096C466.566 355.106 466.461 355.075 466.377 355.011C466.293 354.947 466.236 354.854 466.217 354.75C466.202 354.644 466.228 354.536 466.291 354.449C466.353 354.362 466.447 354.303 466.553 354.285C469.812 353.742 473.151 353.927 476.331 354.827C479.51 355.726 482.452 357.318 484.944 359.488C484.982 359.525 485.012 359.57 485.033 359.619C485.054 359.668 485.065 359.721 485.065 359.775C485.065 359.828 485.054 359.881 485.033 359.93C485.012 359.98 484.982 360.024 484.944 360.061C484.895 360.12 484.829 360.162 484.755 360.181C484.682 360.2 484.604 360.196 484.532 360.17Z" fill="white"/>
<path d="M393.436 55.0968L396.876 56.4166V48.8439C396.876 42.829 401.668 41.3902 406.872 44.3976C412.086 47.4051 416.305 54.7073 416.305 60.7222V61.8041C417.03 61.5825 417.796 61.5277 418.546 61.6439C419.295 61.76 420.008 62.0441 420.632 62.4748C422.608 63.7632 424.252 65.4996 425.431 67.5428C426.61 69.5861 427.29 71.8787 427.415 74.2341V74.7318L432.219 77.5012C433.518 78.3495 434.6 79.4917 435.376 80.8354C436.152 82.1792 436.601 83.6867 436.687 85.2362C436.687 88.0922 434.685 89.2497 432.219 87.8217L393.436 65.4173C392.135 64.5711 391.053 63.4291 390.279 62.0848C389.504 60.7404 389.059 59.2318 388.979 57.6823C388.979 54.8372 390.958 53.6796 393.436 55.0968Z" fill="#E6E6E6"/>
<path d="M439.511 49.1021L445.753 52.7046C445.719 52.4318 445.701 52.1573 445.699 51.8824V50.0757C445.699 46.8303 447.949 45.5537 450.74 47.1657C451.939 47.9 452.965 48.8854 453.748 50.0541C454.202 46.0081 457.383 44.5044 461.234 46.7221C463.435 48.1541 465.267 50.0845 466.583 52.3569C467.899 54.6292 468.66 57.1796 468.806 59.8013V62.5058C468.834 63.5864 468.616 64.6592 468.168 65.6431L473.361 68.6289C474.17 69.1656 474.842 69.8846 475.323 70.7282C475.804 71.5718 476.081 72.5164 476.13 73.4862C476.13 75.2712 474.875 75.9961 473.328 75.109L439.511 55.6363C438.693 55.1034 438.013 54.3845 437.526 53.5384C437.039 52.6923 436.759 51.743 436.709 50.7681C436.709 48.9398 437.964 48.215 439.511 49.1021Z" fill="#E6E6E6"/>
<path d="M415.341 213.288C410.797 220.969 406.427 227.643 403.354 230.846C397.523 233.55 383.828 237.726 378.473 238.418C377.532 238.538 376.58 238.315 375.79 237.791C373.68 236.406 372.047 236.179 369.829 235.411C368.087 234.816 367.351 233.983 367.027 234.329C366.692 234.722 366.523 235.23 366.558 235.746C366.592 236.261 366.826 236.743 367.211 237.088C368.043 237.878 368.965 238.568 369.959 239.143C367.583 239.732 365.105 239.777 362.711 239.273C358.07 238.051 355.884 240.279 359.022 245.32C360.103 247.116 364.56 250.005 373.518 249.226C376.713 249.053 379.896 248.692 383.049 248.144C391.638 246.305 401.191 244.531 407.065 242.735C409.25 241.876 411.206 240.52 412.777 238.775C422.654 227.514 425.932 219.487 430.259 212.195L429.891 200.295C422.881 200.057 419.138 206.862 415.341 213.288Z" fill="#FFA8A7"/>
<path d="M431.092 200.059C429.06 199.773 426.988 200.048 425.1 200.855C423.212 201.661 421.581 202.969 420.382 204.635C415.579 210.79 407.076 225.568 407.076 225.568C407.076 225.568 409.856 232.979 417.364 234.223L429.426 217.93C429.426 217.93 435.138 206.615 431.092 200.059Z" fill="#455A64"/>
<path d="M457.175 366.156H449.311V380.177H457.175V366.156Z" fill="#FFA8A7"/>
<path d="M429.915 365.409L422.061 365.69L421.661 350.848L429.915 350.566V365.409Z" fill="#FFA8A7"/>
<path d="M458.279 244.786C458.279 252.596 457.132 315.526 457.132 315.526C457.305 317.776 459.296 321.93 458.896 330.574C458.301 342.311 457.511 373.165 457.511 373.165C456.161 373.856 454.671 374.23 453.155 374.26C451.639 374.29 450.135 373.975 448.759 373.338C448.759 373.338 442.376 330.065 440.97 318.479C439.737 308.321 436.578 274.698 436.578 274.698L432.326 314.444C433.228 318.708 433.555 323.074 433.3 327.426C432.932 332.835 430.401 360.832 430.401 360.832C429.042 361.634 427.519 362.115 425.946 362.241C424.373 362.367 422.793 362.133 421.324 361.557C421.324 361.557 416.846 319.366 416.759 314.411C416.651 308.786 419.377 244.721 419.377 244.721L458.279 244.786Z" fill="#37474F"/>
<path d="M449.311 376.134V374.965C448.554 375.3 446.812 382.246 443.686 385.21C441.208 387.568 437.833 390.284 436.967 392.912C436.102 395.541 441.673 397.153 443.999 396.731C446.682 396.234 451.356 394.254 452.524 392.404C453.692 390.554 454.244 387.871 455.196 386.53C456.148 385.188 458.344 383.695 458.853 382.138C459.011 380.68 458.86 379.205 458.409 377.81C458.041 376.361 457.652 374.77 457.176 374.911V375.798C456.067 376.708 454.673 377.199 453.238 377.183C452.091 377.28 449.3 377.042 449.311 376.134Z" fill="#263238"/>
<path d="M421.973 363.16C421.562 363.16 421.227 363.776 420.329 364.793C418.994 366.198 417.432 367.368 415.71 368.255C412.767 369.791 407.055 372.15 404.448 373.372C402.825 374.129 402.901 376.163 404.578 377.321C406.255 378.478 410.29 379.311 415.136 378.186C417.776 377.569 421.216 375.027 423.401 375.168C425.587 375.308 429.644 375.265 431.255 374.086C432.867 372.907 432.218 370.462 431.764 368.352C431.266 366.037 430.682 362.435 429.914 362.597V363.408C428.973 364.901 424.094 365.507 422.017 364.415L421.973 363.16Z" fill="#263238"/>
<path d="M436.578 274.701C432.487 273.362 428.746 271.126 425.63 268.156C425.63 268.156 427.794 272.278 434.025 276.118L432.683 311.613L436.578 274.701Z" fill="#263238"/>
<path d="M453.888 201.204C453.888 201.204 460.379 202.696 459.914 214.423L458.562 233.085V261.104C452.785 267.659 427.189 267.183 418.372 260.584C418.372 260.584 419.367 227.427 419.962 214.661C420.384 205.596 422.472 201.03 431.386 200.035L442.345 200.511L453.888 201.204Z" fill="#BA68C8"/>
<path d="M445.622 176.839C445.659 178.409 445.386 179.97 444.816 181.434C444.247 182.898 443.394 184.234 442.306 185.367C441.218 186.499 439.916 187.405 438.476 188.032C437.037 188.659 435.487 188.995 433.917 189.02C427.426 189.02 423.618 183.416 422.212 176.839C419.615 164.798 427.448 164.646 433.917 164.646C437.086 164.712 440.099 166.033 442.294 168.319C444.489 170.605 445.686 173.67 445.622 176.839Z" fill="#263238"/>
<path d="M451.593 181.764C451.593 181.764 449.798 190.548 449.073 191.998C448.617 192.87 447.842 193.533 446.909 193.848L447.039 187.67L451.593 181.764Z" fill="#263238"/>
<path d="M449.333 169.182C449.333 169.182 450.62 168.857 451.994 170.999C453.163 172.827 453.433 176.938 451.594 181.817L448.208 182.228L449.333 169.182Z" fill="#263238"/>
<path d="M450.577 170.967L454.731 171.043C454.76 170.774 454.732 170.503 454.651 170.245C454.569 169.988 454.436 169.75 454.258 169.547C454.08 169.344 453.862 169.179 453.618 169.064C453.373 168.95 453.108 168.886 452.838 168.879C452.27 168.887 451.725 169.105 451.308 169.49C450.891 169.875 450.63 170.401 450.577 170.967Z" fill="#263238"/>
<path d="M451.086 169.981L454.158 167.027C453.981 166.819 453.763 166.649 453.517 166.529C453.271 166.409 453.003 166.341 452.729 166.33C452.456 166.319 452.183 166.364 451.928 166.464C451.673 166.563 451.441 166.715 451.248 166.908C450.841 167.307 450.598 167.844 450.568 168.413C450.538 168.982 450.722 169.542 451.086 169.981Z" fill="#263238"/>
<path d="M447.19 182.174C447.872 182.596 448.835 181.244 449.679 180.324C450.522 179.405 453.14 178.561 454.503 181.547C455.867 184.533 453.541 187.486 451.593 188.46C448.099 190.19 446.996 187.67 446.996 187.67L446.704 201.582C441.792 209.155 430.649 208.917 434.663 201.214V196.984C433.012 197.259 431.335 197.346 429.665 197.244C426.939 196.811 425.229 194.572 424.396 191.499C423.077 186.566 422.568 182.585 423.693 172.881C424.927 162.258 436.805 162.139 443.166 166.391C449.527 170.642 447.19 182.174 447.19 182.174Z" fill="#FFA8A7"/>
<path d="M432.391 171.225C435.225 170.944 438.027 170.36 440.873 170.143C441.486 170.069 442.108 170.098 442.712 170.23C444.875 170.825 444.616 173.356 444.962 175.12C445.557 178.171 446.044 183.331 447.19 183.352C447.536 183.352 448.835 181.113 449.678 180.313C450.142 179.623 450.405 178.817 450.436 177.987C450.652 176.732 450.76 175.444 450.858 174.168C450.944 173.086 451.052 172.004 451.052 170.922C451.102 169.7 451.004 168.476 450.76 167.277C450.489 166.256 449.969 165.32 449.246 164.55L449.029 164.312C447.603 162.822 445.873 161.656 443.956 160.894C441.197 159.861 438.304 159.23 435.366 159.022C432.432 158.815 429.511 158.453 426.614 157.941C426.448 157.892 426.272 157.892 426.106 157.941C425.988 158.006 425.889 158.099 425.817 158.213C425.745 158.326 425.703 158.456 425.695 158.59C425.576 159.262 425.65 159.954 425.909 160.586C426.167 161.218 426.599 161.763 427.155 162.16C425.197 162.311 422.947 161.294 421.064 160.775C420.912 160.71 420.748 160.677 420.583 160.677C420.418 160.677 420.254 160.71 420.102 160.775C419.913 160.907 419.778 161.103 419.723 161.327C419.586 161.835 419.568 162.368 419.669 162.884C419.841 164.45 420.423 165.943 421.357 167.212C422.815 169.11 424.874 170.457 427.198 171.031C428.909 171.36 430.66 171.426 432.391 171.225Z" fill="#263238"/>
<path d="M434.673 196.983C434.673 196.983 440.753 195.706 442.873 194.527C444.136 193.836 445.161 192.781 445.816 191.498C445.496 192.787 444.927 194 444.139 195.068C442.592 197.145 434.673 198.66 434.673 198.66V196.983Z" fill="#F28F8F"/>
<path d="M436.135 180.582C436.123 180.916 436.244 181.241 436.471 181.486C436.698 181.731 437.012 181.877 437.346 181.891C437.611 181.913 437.877 181.854 438.108 181.722C438.339 181.591 438.525 181.392 438.641 181.153C438.757 180.914 438.799 180.646 438.76 180.383C438.721 180.119 438.604 179.874 438.423 179.679C438.242 179.484 438.007 179.348 437.748 179.289C437.488 179.23 437.217 179.25 436.97 179.348C436.723 179.446 436.51 179.616 436.361 179.836C436.212 180.056 436.133 180.316 436.135 180.582Z" fill="#263238"/>
<path d="M438.081 175.337L440.688 176.84C440.878 176.47 440.921 176.041 440.809 175.64C440.696 175.239 440.437 174.895 440.082 174.677C439.91 174.58 439.718 174.52 439.521 174.501C439.324 174.482 439.125 174.504 438.936 174.566C438.748 174.628 438.575 174.729 438.428 174.861C438.28 174.994 438.162 175.156 438.081 175.337Z" fill="#263238"/>
<path d="M435.214 189.354L432.434 190.435C432.49 190.626 432.584 190.803 432.711 190.956C432.839 191.108 432.996 191.233 433.173 191.323C433.351 191.412 433.545 191.464 433.743 191.475C433.942 191.486 434.14 191.456 434.327 191.387C434.705 191.224 435.007 190.923 435.172 190.546C435.337 190.168 435.352 189.742 435.214 189.354Z" fill="#F28F8F"/>
<path d="M424.948 176.453L427.328 174.549C427.221 174.383 427.08 174.241 426.915 174.133C426.75 174.024 426.564 173.952 426.369 173.921C426.174 173.889 425.975 173.899 425.784 173.949C425.593 174 425.415 174.09 425.261 174.214C424.943 174.483 424.735 174.861 424.678 175.274C424.62 175.687 424.716 176.106 424.948 176.453Z" fill="#263238"/>
<path d="M425.997 180.222C426.016 180.459 426.104 180.685 426.249 180.873C426.394 181.061 426.591 181.202 426.815 181.28C427.04 181.358 427.282 181.368 427.512 181.311C427.743 181.253 427.951 181.13 428.113 180.955C428.274 180.781 428.381 180.564 428.421 180.33C428.461 180.096 428.432 179.855 428.337 179.637C428.242 179.419 428.086 179.234 427.888 179.104C427.689 178.973 427.457 178.903 427.22 178.902C427.053 178.908 426.888 178.947 426.736 179.016C426.584 179.086 426.447 179.185 426.333 179.307C426.22 179.43 426.131 179.574 426.074 179.731C426.016 179.888 425.99 180.055 425.997 180.222Z" fill="#263238"/>
<path d="M432.522 179.209L432.381 186.901L428.011 185.905L432.522 179.209Z" fill="#F28F8F"/>
<path d="M328.731 243.629L335.514 239.713L338.197 236.457L331.425 240.373L328.731 243.629Z" fill="#BA68C8"/>
<path opacity="0.4" d="M328.731 243.629L335.514 239.713L338.197 236.457L331.425 240.373L328.731 243.629Z" fill="black"/>
<path d="M347.177 254.278L353.96 250.362L359.618 245.354L352.845 249.259L347.177 254.278Z" fill="#BA68C8"/>
<path opacity="0.4" d="M347.177 254.278L353.96 250.362L359.618 245.354L352.845 249.259L347.177 254.278Z" fill="black"/>
<path d="M404.795 267.789C406.399 269.939 407.369 272.494 407.597 275.167C406 273.013 405.03 270.46 404.795 267.789ZM420.557 267.994C418.274 252.47 409.934 237.119 400.003 231.375C395.232 228.616 390.818 228.519 387.28 230.585L380.898 234.263L380.541 234.48C380.256 234.636 379.982 234.81 379.718 234.999C379.194 235.36 378.702 235.765 378.247 236.211L378.031 236.416C377.836 236.611 377.631 236.838 377.447 237.055C377.263 237.271 376.981 237.606 376.765 237.898C376.306 238.503 375.89 239.139 375.521 239.802C375.326 240.138 375.142 240.495 374.969 240.884L319.223 208.711L312.451 212.616V216.944L313.025 217.268L313.565 217.582V218.447L312.484 219.086V221.595L320.673 238.904L328.765 243.589L331.459 240.343L338.599 244.616L342.699 251.637L347.221 254.245L352.879 249.225L359.824 253.238L362.161 262.877L373.833 269.628C374.41 272.081 375.133 274.498 375.997 276.865C376.073 277.103 376.17 277.352 376.267 277.623C380.14 287.792 386.296 296.5 393.241 300.514C394.074 301.007 394.946 301.431 395.848 301.78C396.326 301.969 396.813 302.132 397.309 302.266C397.742 302.382 398.174 302.479 398.607 302.558C399.973 302.808 401.373 302.808 402.74 302.558L403.302 302.418C403.571 302.364 403.835 302.288 404.092 302.191L404.698 301.953C404.912 301.875 405.119 301.777 405.314 301.661C405.514 301.574 405.709 301.477 405.898 301.368L406.18 301.195C406.231 301.179 406.278 301.153 406.32 301.12C407.867 300.233 411.675 298.026 412.714 297.441C417.863 294.456 421.195 286.905 421.195 276.227C421.187 273.471 420.973 270.719 420.557 267.994Z" fill="#BA68C8"/>
<path d="M402.814 280.889C400.131 279.342 397.968 274.755 397.968 270.644C397.968 266.533 400.131 264.445 402.814 265.981C405.497 267.517 407.65 272.115 407.65 276.237C407.65 280.359 405.486 282.436 402.814 280.889ZM413.773 271.899C411.501 256.386 403.161 241.024 393.219 235.29C388.61 232.629 384.348 232.434 380.886 234.262L380.529 234.479C380.245 234.635 379.97 234.809 379.707 234.998C379.182 235.359 378.69 235.764 378.236 236.21L378.019 236.415C377.824 236.61 377.619 236.837 377.435 237.053C377.251 237.27 376.97 237.605 376.753 237.897C376.294 238.502 375.878 239.138 375.509 239.801C375.315 240.137 375.131 240.494 374.958 240.883C373.949 242.974 373.221 245.189 372.794 247.471L312.439 212.615V216.942L313.013 217.267L313.554 217.581V218.446L312.472 219.084V221.594L320.661 238.903L328.753 243.588L331.447 240.342L338.587 244.615L342.687 251.636L347.209 254.244L352.867 249.224L359.812 253.237L362.149 262.876L373.833 269.627C374.409 272.08 375.132 274.497 375.996 276.864C376.072 277.102 376.169 277.351 376.267 277.622C380.14 287.791 386.295 296.499 393.24 300.513C394.073 301.006 394.945 301.43 395.847 301.779C396.325 301.968 396.812 302.131 397.308 302.265C397.741 302.381 398.173 302.478 398.606 302.557C399.972 302.806 401.372 302.806 402.739 302.557L403.301 302.417C403.57 302.363 403.834 302.287 404.091 302.19L404.697 301.952C404.911 301.874 405.118 301.776 405.313 301.66C405.513 301.573 405.708 301.476 405.898 301.367L406.179 301.194C406.23 301.178 406.277 301.152 406.319 301.119C411.253 298.003 414.422 290.56 414.422 280.142C414.404 277.382 414.187 274.627 413.773 271.899Z" fill="#BA68C8"/>
<path opacity="0.4" d="M407.651 276.228C407.651 280.35 405.487 282.438 402.815 280.891C400.143 279.344 397.969 274.767 397.969 270.646C397.969 266.524 400.132 264.436 402.815 265.983C403.588 266.453 404.261 267.071 404.795 267.801C405.028 270.472 405.998 273.026 407.597 275.179C407.636 275.527 407.655 275.877 407.651 276.228Z" fill="black"/>
<path opacity="0.4" d="M421.173 276.217C421.173 286.895 417.841 294.446 412.691 297.431C411.609 298.016 407.845 300.223 406.298 301.11C411.231 297.994 414.4 290.551 414.4 280.133C414.389 277.378 414.179 274.626 413.773 271.901C411.501 256.387 403.16 241.026 393.218 235.292C388.61 232.631 384.348 232.436 380.886 234.264L387.268 230.586C390.806 228.52 395.22 228.617 399.991 231.376C409.933 237.12 418.273 252.471 420.545 267.995C420.957 270.717 421.167 273.465 421.173 276.217Z" fill="white"/>
<path d="M414.4 280.11C414.4 290.528 411.23 297.971 406.297 301.087C407.844 300.199 411.652 297.992 412.69 297.408C417.84 294.422 421.172 286.871 421.172 276.194C421.172 275.804 421.172 275.404 421.172 275.004L414.4 278.92C414.389 279.342 414.4 279.731 414.4 280.11Z" fill="#BA68C8"/>
<path opacity="0.1" d="M414.4 280.11C414.4 290.528 411.23 297.971 406.297 301.087C407.844 300.199 411.652 297.992 412.69 297.408C417.84 294.422 421.172 286.871 421.172 276.194C421.172 275.804 421.172 275.404 421.172 275.004L414.4 278.92C414.389 279.342 414.4 279.731 414.4 280.11Z" fill="black"/>
<path opacity="0.15" d="M373.054 251.897V254.093L312.451 219.107L313.565 218.458V217.549L373.054 251.897Z" fill="black"/>
<path opacity="0.15" d="M373.054 252.808V254.095L312.451 219.109L313.565 218.46V218.449L373.054 252.808Z" fill="black"/>
<path opacity="0.15" d="M399.408 297.42C397.111 297.361 394.871 296.692 392.917 295.484C383.04 289.783 375.002 272.82 375.002 257.675C375.002 248.836 377.674 242.237 382.337 239.543C385.582 237.661 389.423 237.899 393.458 240.225C403.324 245.926 411.362 262.943 411.362 278.088C411.362 286.916 408.69 293.526 404.027 296.209C402.621 297.012 401.027 297.43 399.408 297.42ZM387.021 239.381C385.579 239.373 384.161 239.746 382.91 240.463C378.659 242.919 376.116 249.355 376.116 257.664C376.116 272.463 383.905 289.036 393.49 294.532C397.158 296.696 400.63 296.89 403.519 295.224C407.77 292.769 410.312 286.343 410.312 278.034C410.312 263.224 402.523 246.662 392.949 241.155C391.16 240.067 389.115 239.469 387.021 239.424V239.381Z" fill="black"/>
<path opacity="0.4" d="M374.915 240.863C373.906 242.954 373.179 245.169 372.751 247.451L312.396 212.595L319.169 208.69L374.915 240.863Z" fill="white"/>
<path d="M453.358 244.248C456.517 238.266 460.13 224.829 461.926 218.046C464.479 208.418 460.346 202.36 455.651 202.111C452.72 202.566 443.059 237.692 443.059 237.692C441.977 238.547 427.297 246.001 422.58 247.872C421.737 248.191 420.806 248.191 419.962 247.872C417.701 247.05 416.154 247.201 413.936 246.985C412.195 246.812 411.318 246.195 411.091 246.563C410.885 247.02 410.858 247.537 411.017 248.012C411.175 248.488 411.507 248.886 411.946 249.127C412.901 249.683 413.917 250.126 414.975 250.447C413.079 251.022 411.103 251.289 409.122 251.237C404.579 251.139 402.945 253.108 406.472 257.728C408.636 260.605 412.216 261.514 420.211 258.755C422.504 257.955 425.62 256.408 428.53 255.358C434.523 253.195 436.103 252.935 440.668 251.388C447.321 249.138 451.951 246.909 453.358 244.248Z" fill="#FFA8A7"/>
<path d="M453.887 201.205C456.646 201.583 459.296 202.2 460.93 204.45C462.563 206.7 463.872 209.859 462.271 218.46C461.045 224.508 459.404 230.465 457.36 236.288C457.36 236.288 450.934 239.036 444.107 232.069L448.802 213.916C448.802 213.916 449.56 202.114 453.887 201.205Z" fill="#455A64"/>
</svg>
